<?xml version="1.0" encoding="iso-8859-1"?>
<!-- Generator: Adobe Illustrator 21.1.0, SVG Export Plug-In . SVG Version: 6.00 Build 0)  -->
<svg version="1.1" id="Layer_1" xmlns="http://www.w3.org/2000/svg" xmlns:xlink="http://www.w3.org/1999/xlink" x="0px" y="0px"
	 viewBox="0 0 360 170.253" style="enable-background:new 0 0 360 170.253;" xml:space="preserve">
<g>
	<path style="fill:#5FC9F3;" d="M184.467,22.916c0,0-27.893-10.346-54.966,7.292s-73.347,21.17-34.379,67.112
		C95.122,97.321,63.87,72.231,184.467,22.916z"/>
	<path style="fill:#5FC9F3;" d="M177.494,25.286c0,0-15.997-5.332-28.713,0c-12.716,5.332-44.436,31.012-44.436,46.303
		c0,7.09-5.106,13.255-5.346,17.964c-0.981,19.239-4.028,23.057-9.655,47.82c0,0,21.114,1.941,35.483-68.447
		C135.137,18.414,177.494,25.286,177.494,25.286z"/>
	<path style="fill:#2E79BA;" d="M183.204,24.763c0,0-27.271-10.115-53.74,7.13s-52.537,70.183-14.438,115.099
		C115.026,146.992,65.297,72.977,183.204,24.763z"/>
	<path style="fill:#1E549F;" d="M173.856,21.466c0,0-13.11,0.401-25.543,5.615s-41.307,25.667-43.714,59.354
		c-2.406,33.688,11.63,75.797,65.37,83.818c0,0-51.231-8.354-37.997-77.333S173.856,21.466,173.856,21.466z"/>
	<path style="fill:#070F4F;" d="M60.305,0h10.451v166.498H60.305V0z"/>
	<path style="fill:#070F4F;" d="M267.869,0h10.45v156.046h26.602v10.451h-37.052V0z"/>
	<g>
		<polygon style="fill:#070F4F;" points="333.398,111.063 333.398,10.45 360,10.45 360,0.237 322.948,0.237 322.948,111.063 		"/>
		<polygon style="fill:#070F4F;" points="322.948,119.262 322.948,129.52 348.837,129.52 348.837,119.469 333.398,119.469 
			333.398,119.262 		"/>
		<polygon style="fill:#070F4F;" points="333.398,137.718 322.948,137.718 322.948,166.498 360,166.498 360,156.046 
			333.398,156.046 		"/>
	</g>
	<g>
		<polygon style="fill:#070F4F;" points="26.365,0.237 15.913,0.237 5.306,111.063 15.79,111.063 21.14,55.103 27.272,119.262 
			15.006,119.262 10.357,119.262 4.521,119.262 0,166.498 10.451,166.498 14.013,130.157 14.023,130.157 14.087,129.52 
			38.739,129.52 		"/>
		<polygon style="fill:#070F4F;" points="39.524,137.718 28.956,137.718 31.59,166.498 42.278,166.498 		"/>
	</g>
	<g>
		<path style="fill:#070F4F;" d="M203.505,128.544c-13.047,1.827-28.465-1.108-38.312-11.551
			c-5.153-8.538-11.099-24.666,3.526-40.549c21.284-23.116,56.406-2.79,54.902,22.521c0,0,2.224,3.383,9.87-7.82
			c5.374-7.875,0.043-17.249-4.436-22.896c2.674-7.873,4.376-22.981-11.513-39.966c-23.261-24.865-62.162-11.63-62.162-11.63
			c10.026-0.401,17.245,4.812,17.245,4.812c-65.771,13.635-62.216,73.792-54.997,96.651s33.742,45.719,64.623,47.724
			c23.224,1.508,44.858-10.142,57.94-28.123l-34.198,0l9.385-8.198l29.93,0c1.744-3.281,3.215-6.712,4.397-10.258l-22.878,0
			C219.205,124.482,210.823,127.52,203.505,128.544z"/>
		<path style="fill:#070F4F;" d="M250.026,71.093c0.761,17.446-5.155,30.626-13.721,39.97l15.678,0
			C257.51,86.622,250.026,71.093,250.026,71.093z"/>
	</g>
</g>
</svg>
