<?xml version="1.0" encoding="UTF-8"?>
<svg width="79px" height="85px" viewBox="0 0 79 85" version="1.1" xmlns="http://www.w3.org/2000/svg" xmlns:xlink="http://www.w3.org/1999/xlink">
    <!-- Generator: Sketch 51.2 (57519) - http://www.bohemiancoding.com/sketch -->
    <title>efficient</title>
    <desc>Created with Sketch.</desc>
    <defs></defs>
    <g id="logo" stroke="none" stroke-width="1" fill="none" fill-rule="evenodd">
        <g id="aigle_efficient" transform="translate(-100.000000, -27.000000)" fill="#7ED321">
            <g id="efficient" transform="translate(95.000000, 20.000000)">
                <path d="M55.623711,77.0031736 C52.8476811,77.0031736 45.0733402,76.7991609 38.5667925,76.5113573 L51.5798879,63.5019049 L62.144831,67.9901842 C63.4126242,68.5257175 64.880787,68.241557 65.8534904,67.2688536 C67.5475244,65.5748196 66.9901325,62.7077127 64.7860668,61.7714401 L56.7312085,58.3469413 L66.8626246,48.2155252 C68.2870704,46.7910794 68.2870704,44.4850074 66.8626246,43.0642047 C65.4418219,41.6397589 63.1357499,41.6397589 61.7113041,43.0642047 L56.8878611,47.8876477 L54.0754004,43.0714908 C52.9132566,41.078724 50.1773007,40.7253448 48.541556,42.3574464 C47.4122,43.4904455 47.1826858,45.2427688 47.9914504,46.6271406 L51.7365405,53.0389682 L33.4227581,71.3527506 C33.1276683,64.8279875 32.9236556,57.0755051 32.9236556,54.3031183 C32.9236556,41.3300968 37.6596646,33.2861677 61.2267739,33.2861677 C64.316109,33.2861677 71.3071869,33.5739713 76.0796267,33.9419227 C76.4002181,37.6323667 76.6406616,42.4412373 76.6406616,45.0569715 C76.6406616,77.0031736 61.3724973,77.0031736 55.623711,77.0031736 M82.5023835,27.4244458 C79.2017495,26.520961 64.8152115,26 61.2267739,26 C39.5613544,26 25.637488,32.6376987 25.637488,54.3031183 C25.637488,57.0864343 25.9544363,70.7297833 26.5154712,78.2600375 L20.4861675,84.9294895 C19.0617217,86.3502922 19.0617217,88.6600074 20.4861675,90.08081 C21.9106132,91.5052558 24.2166853,91.5052558 25.637488,90.08081 L31.6667917,83.4113581 C39.197046,83.972393 52.8403949,84.2893413 55.623711,84.2893413 C77.2927736,84.2893413 83.9268293,66.7223911 83.9268293,45.0569715 C83.9268293,41.4685339 83.4022252,30.7250797 82.5023835,27.4244458" id="leaf-[#15]"></path>
                <path d="M35.3355246,26.7882167 L38.9772319,19.5080948 C39.474427,18.5104118 40.4951588,17.8782167 41.6113783,17.8782167 C43.7977197,17.8782167 45.2234514,20.1830948 44.2455246,22.1422411 L40.6038173,29.422363 C40.1033295,30.420046 39.0858905,31.0489484 37.969671,31.0489484 C35.7800368,31.0489484 34.3575978,28.747363 35.3355246,26.7882167 L35.3355246,26.7882167 Z M2.40869534,22.1422411 C1.43076851,20.1830948 2.85320754,17.8782167 5.04284168,17.8782167 C6.1590612,17.8782167 7.17650022,18.5104118 7.67698803,19.5080948 L11.3186953,26.7882167 C12.2966222,28.747363 10.8708905,31.0489484 8.684549,31.0489484 C7.56832949,31.0489484 6.54759778,30.420046 6.05040266,29.422363 L2.40869534,22.1422411 Z M20.034427,21.1708996 L20.034427,14.5855338 C20.034427,12.7679728 21.509549,11.2928508 23.32711,11.2928508 C25.144671,11.2928508 26.6197929,12.7679728 26.6197929,14.5855338 L26.6197929,21.1708996 C26.6197929,22.9917533 25.144671,24.4635826 23.32711,24.4635826 C21.509549,24.4635826 20.034427,22.9917533 20.034427,21.1708996 L20.034427,21.1708996 Z" id="projector-[#209]" transform="translate(23.326923, 21.170900) rotate(-35.000000) translate(-23.326923, -21.170900) "></path>
            </g>
        </g>
    </g>
</svg>