<?xml version="1.0" encoding="UTF-8"?>
<svg width="93px" height="70px" viewBox="0 0 93 70" version="1.1" xmlns="http://www.w3.org/2000/svg" xmlns:xlink="http://www.w3.org/1999/xlink">
    <!-- Generator: Sketch 51.2 (57519) - http://www.bohemiancoding.com/sketch -->
    <title>fast</title>
    <desc>Created with Sketch.</desc>
    <defs></defs>
    <g id="logo" stroke="none" stroke-width="1" fill="none" fill-rule="evenodd">
        <g id="aigle_fast" transform="translate(-90.000000, -40.000000)" fill="#FFBF35">
            <g id="fast" transform="translate(90.000000, 40.000000)">
                <path d="M7.5,65 C7.5,66.6568542 8.84559019,68 10.508788,68 L25.491212,68 C27.1529197,68 28.5,66.6534829 28.5,65 L28.5,65 C28.5,63.3431458 27.1544098,62 25.491212,62 L10.508788,62 C8.84708027,62 7.5,63.3465171 7.5,65 L7.5,65 Z M16,41 C16,42.6568542 17.3455902,44 19.008788,44 L33.991212,44 C35.6529197,44 37,42.6534829 37,41 L37,41 C37,39.3431458 35.6544098,38 33.991212,38 L19.008788,38 C17.3470803,38 16,39.3465171 16,41 L16,41 Z M0,53 C0,54.6568542 1.34731857,56 3.00001915,56 L26.9999809,56 C28.6568457,56 30,54.6534829 30,53 L30,53 C30,51.3431458 28.6526814,50 26.9999809,50 L3.00001915,50 C1.34315432,50 0,51.3465171 0,53 L0,53 Z" id="align_text_left_right-[#920]" transform="translate(18.500000, 53.000000) scale(1, -1) translate(-18.500000, -53.000000) "></path>
                <path d="M60,10.1481136 L60,7.00032973 C60,6.64991878 60.0604538,6.31314743 60.1715316,6 L53.9910904,6 C52.3417706,6 51,4.65685425 51,3 C51,1.34651712 52.3391568,0 53.9910904,0 L72.0089096,0 C73.6582294,0 75,1.34314575 75,3 C75,4.65348288 73.6608432,6 72.0089096,6 L65.8288593,6 C65.9396665,6.31287542 66,6.64957363 66,7.00032973 L66,10.1481136 C81.1603329,11.6532049 93,24.4435009 93,40 C93,56.569 79.569,70 63,70 C46.431,70 33,56.569 33,40 C33,24.4435009 44.8396671,11.6532049 60,10.1481136 Z M87,40 C87,26.767 76.233,16 63,16 C49.767,16 39,26.767 39,40 C39,53.233 49.767,64 63,64 C76.233,64 87,53.233 87,40 Z M81,43 C81,44.656 79.656,46 78,46 L66,46 C62.685,46 60,43.315 60,40 L60,25 C60,23.344 61.344,22 63,22 C64.656,22 66,23.344 66,25 L66,37 C66,38.65 67.35,40 69,40 L78,40 C79.656,40 81,41.344 81,43 Z" id="Combined-Shape"></path>
            </g>
        </g>
    </g>
</svg>